<?xml version="1.0" encoding="UTF-8" standalone="no"?><!-- Generator: Gravit.io --><svg xmlns="http://www.w3.org/2000/svg" xmlns:xlink="http://www.w3.org/1999/xlink" style="isolation:isolate" viewBox="0 0 202 202" width="202pt" height="202pt"><defs><clipPath id="_clipPath_zWzdYVpjltfkyHv9GWoZbc1JXqUXqqZr"><rect width="202" height="202"/></clipPath></defs><g clip-path="url(#_clipPath_zWzdYVpjltfkyHv9GWoZbc1JXqUXqqZr)"><path d=" M 146.972 153.399 C 157.113 142.307 164.034 128.222 166.246 112.63 L 202.014 112.63 L 202.014 185.601 C 202.014 194.66 194.66 202.014 185.601 202.014 L 16.414 202.014 C 7.355 202.014 0 194.66 0 185.601 L 0 112.63 L 51.112 112.63 C 56.105 129.206 71.499 141.294 89.694 141.294 C 111.929 141.294 129.98 123.242 129.98 101.007 C 129.98 78.772 111.929 60.72 89.694 60.72 C 70.128 60.72 53.8 74.699 50.163 93.206 L 0 93.206 L 0 16.414 C 0 7.355 7.355 0 16.414 0 L 185.601 0 C 194.66 0 202.014 7.355 202.014 16.414 L 202.014 93.206 L 166.528 93.206 C 164.682 76.732 157.594 61.833 146.974 50.217 C 132.632 35.874 121.57 52.619 131.18 61.946 C 141.417 72.135 147.757 86.236 147.757 101.806 C 147.757 117.677 141.17 132.021 130.584 142.252 C 120.796 151.711 131.064 169.306 146.972 153.399 Z  M 67.007 100.806 C 67.007 88.388 77.089 78.306 89.507 78.306 C 101.925 78.306 112.007 88.388 112.007 100.806 C 112.007 113.224 101.925 123.306 89.507 123.306 C 77.089 123.306 67.007 113.224 67.007 100.806 Z " fill-rule="evenodd" fill="rgb(20,40,40)"/></g></svg>