<?xml version="1.0" standalone="no"?>
<!DOCTYPE svg PUBLIC "-//W3C//DTD SVG 20010904//EN"
 "http://www.w3.org/TR/2001/REC-SVG-20010904/DTD/svg10.dtd">
<svg version="1.0" xmlns="http://www.w3.org/2000/svg"
 width="307.000000pt" height="307.000000pt" viewBox="0 0 307.000000 307.000000"
 preserveAspectRatio="xMidYMid meet">
<metadata>
Created by potrace 1.11, written by Peter Selinger 2001-2013
</metadata>
<g transform="translate(0.000000,307.000000) scale(0.100000,-0.100000)"
fill="#000000" stroke="none">
<path d="M2790 2960 c-80 -61 -156 -119 -170 -129 -14 -11 -56 -42 -95 -70
-38 -27 -74 -54 -80 -58 -5 -5 -59 -41 -120 -81 -60 -40 -114 -76 -120 -80 -5
-4 -30 -18 -55 -30 -25 -13 -52 -27 -60 -33 -16 -10 -88 -41 -105 -45 -5 -1
-48 -16 -94 -33 l-84 -30 -96 24 c-143 36 -145 36 -286 40 -293 9 -576 -85
-794 -261 l-53 -44 -67 47 c-118 84 -297 270 -341 353 -7 14 -21 36 -31 49
-19 23 -19 22 -14 -95 2 -66 7 -189 10 -274 3 -85 8 -216 10 -290 6 -144 11
-286 20 -550 10 -307 18 -370 67 -530 28 -92 110 -253 170 -335 56 -77 244
-265 265 -265 7 0 13 -3 13 -7 0 -23 200 -127 323 -168 134 -45 268 -64 422
-59 114 3 140 5 210 21 17 4 32 7 35 8 37 7 117 29 125 34 6 3 12 6 15 7 23 4
159 70 220 105 107 63 272 217 352 329 80 113 157 277 184 391 43 179 54 361
30 494 -9 50 -22 113 -29 140 -11 46 -10 59 21 175 17 69 34 134 36 145 3 11
16 63 29 115 28 103 84 321 172 665 31 121 69 268 85 328 15 59 27 107 27 107
-1 0 -67 -50 -147 -110z m-984 -1194 c403 -107 496 -698 165 -1051 -48 -52
-142 -125 -159 -125 -7 0 -12 -3 -12 -7 0 -5 -19 -16 -43 -25 -240 -98 -480
-27 -602 176 -65 109 -89 198 -89 326 0 132 22 228 81 344 45 89 66 119 134
187 156 157 351 222 525 175z m-1082 -200 c92 -75 138 -194 142 -371 3 -103 0
-129 -19 -186 -24 -71 -65 -139 -83 -139 -6 0 -16 -6 -22 -13 -14 -17 -76 -21
-116 -7 -101 33 -196 234 -196 413 0 158 62 302 145 338 41 18 103 3 149 -35z"/>
</g>
</svg>
